<svg width="32" height="32" viewBox="0 0 32 32" fill="none" xmlns="http://www.w3.org/2000/svg">
<path fill-rule="evenodd" clip-rule="evenodd" d="M21.3333 25.3334L21.3333 22.6667L18.6666 22.6667L18.6666 20.0001L16 20.0001L16 17.3334L13.3333 17.3334L13.3333 14.6667L16 14.6667L16 12.0001L18.6666 12.0001L18.6666 9.33341L21.3333 9.33342L21.3333 6.66675L18.6666 6.66675L18.6666 9.33341L16 9.33341L16 12.0001L13.3333 12.0001L13.3333 14.6667L10.6666 14.6667L10.6666 17.3334L13.3333 17.3334L13.3333 20.0001L16 20.0001L16 22.6667L18.6666 22.6667L18.6666 25.3334L21.3333 25.3334Z" fill="#1D1D21"/>
</svg>
