<svg width="245" height="180" viewBox="0 0 245 180" fill="none" xmlns="http://www.w3.org/2000/svg">
<g opacity="0.85">
<path fill-rule="evenodd" clip-rule="evenodd" d="M80.8472 13.8339C79.7572 13.8339 78.5115 13.8339 77.2658 13.9929L77.2677 14.0426C34.2508 17.2569 0.5 53.0933 0.5 96.8375C0.5 142.792 37.7151 180 83.4943 180L83.4221 174.074L83.65 180H87.5428C116.505 179.205 140.64 159.17 148.582 147.721C153.876 140.565 158.08 132.774 161.039 124.346C164.309 116.396 170.226 116.714 170.226 116.714L178.478 116.555V115.442H141.886V116.714L151.852 117.509C161.661 118.304 158.547 124.187 158.547 124.187C134.101 179.205 87.5428 174.117 87.5428 174.117V5.24735V4.13428L114.325 34.8233V96.9965H98.754V116.078H116.505V99.2226H244.344V96.8375H116.661V34.0283L105.294 21.3074C129.741 27.6678 149.672 45.7951 158.703 69.9647C161.661 78.0742 141.575 76.9611 141.575 76.9611V78.5512H178.323V77.1201L169.914 76.6431C161.506 76.1661 161.039 69.4876 161.039 69.4876C143.599 22.4205 99.3768 14.947 99.3768 14.947L85.9856 0L80.8472 13.8339ZM77.621 23.2291L78.9786 19.8765C78.4819 19.9365 77.9888 19.9999 77.4994 20.0667C11.867 29.0226 11.867 98.2687 11.867 98.2687C14.6698 167.915 80.2243 173.64 80.2243 173.64L80.0686 97.9507L70.2588 109.399V163.94H56.089V132.297H52.0405V129.912H68.3903V108.922L70.4145 106.537V41.0249L77.621 23.2291Z" fill="url(#paint0_linear_1030_232)"/>
</g>
<defs>
<linearGradient id="paint0_linear_1030_232" x1="0.5" y1="90.0159" x2="244.484" y2="90.0159" gradientUnits="userSpaceOnUse">
<stop stop-color="#FF3C75"/>
<stop offset="0.25" stop-color="#FA7442"/>
<stop offset="0.7" stop-color="#FFBC1D"/>
<stop offset="1" stop-color="#FF9918"/>
</linearGradient>
</defs>
</svg>
