<svg width="48" height="48" viewBox="0 0 48 48" fill="none" xmlns="http://www.w3.org/2000/svg">
<g clip-path="url(#clip0_1943_1329)">
<mask id="mask0_1943_1329" style="mask-type:luminance" maskUnits="userSpaceOnUse" x="0" y="0" width="48" height="48">
<path d="M48 0H0V48H48V0Z" fill="white"/>
</mask>
<g mask="url(#mask0_1943_1329)">
<path d="M24 47.904C37.248 47.904 48 37.2 48 23.952C48 10.704 37.248 0 24 0C10.752 0 0 10.704 0 23.952C0 37.2 10.752 47.904 24 47.904Z" fill="#885BF7"/>
<path d="M42.768 38.832H37.776L33.792 11.856L35.088 9.40797L39.168 37.056H40.848L36.288 6.14397H34.896L26.016 23.088L25.056 21.264L33.936 4.27197H37.68L42.768 38.832Z" fill="#74FFCD"/>
<path d="M30.8641 24.96L31.2961 27.84L26.2081 37.44L11.4241 9.74401L7.34406 37.056H12.8641L14.4961 26.112L15.9361 28.8L14.4481 38.88H5.23206L10.4161 4.32001L26.1601 33.888L30.8641 24.96Z" fill="#74FFCD"/>
<path d="M36 38.832H34.32L31.44 19.632L25.824 30.24L12 4.27197H13.872L25.776 26.64L32.352 14.304L36 38.832Z" fill="#74FFCD"/>
<path d="M25.056 38.832H23.184L13.44 20.544L11.232 35.184H9.35999L12.384 15.072L25.056 38.832Z" fill="#74FFCD"/>
</g>
</g>
<defs>
<clipPath id="clip0_1943_1329">
<rect width="48" height="48" fill="white"/>
</clipPath>
</defs>
</svg>
