<svg width="100" height="100" viewBox="0 0 100 100" fill="none" xmlns="http://www.w3.org/2000/svg">
<g clip-path="url(#clip0_680_3233)">
<path d="M50 99.75C77.6142 99.75 100 77.4224 100 49.88C100 22.3376 77.6142 0.00999451 50 0.00999451C22.3858 0.00999451 0 22.3376 0 49.88C0 77.4224 22.3858 99.75 50 99.75Z" fill="#885BF7"/>
<path d="M79.7202 76.53H71.7602L65.4002 34.91L67.4602 31.11L73.9802 73.73H76.6402L69.3602 26.03H67.1502L52.9402 52.22L51.4102 49.39L65.6002 23.22H71.5602L79.7202 76.53Z" fill="#74FFCD"/>
<path d="M60.5503 55.15L61.2303 59.57L53.2003 74.36L30.0503 31.67L23.6203 73.73H32.3103L34.9003 56.86L37.1503 61.02L34.7903 76.53H20.2803L28.4303 23.28L53.1403 68.82L60.5503 55.15Z" fill="#74FFCD"/>
<path d="M69.1198 76.53H66.4598L61.9298 46.95L53.0698 63.29L31.3398 23.22H34.2798L52.9998 57.75L63.3398 38.71L69.1198 76.53Z" fill="#74FFCD"/>
<path d="M51.4402 76.53H48.5102L33.2802 48.46L29.8502 70.92H26.9502L31.6602 40.07L51.4402 76.53Z" fill="#74FFCD"/>
</g>
<defs>
<clipPath id="clip0_680_3233">
<rect width="100" height="100" fill="white"/>
</clipPath>
</defs>
</svg>
