<svg width="100" height="100" viewBox="0 0 100 100" fill="none" xmlns="http://www.w3.org/2000/svg">
<g clip-path="url(#clip0_1891_17158)">
<mask id="mask0_1891_17158" style="mask-type:luminance" maskUnits="userSpaceOnUse" x="0" y="0" width="100" height="100">
<path d="M100 0H0V100H100V0Z" fill="white"/>
</mask>
<g mask="url(#mask0_1891_17158)">
<path d="M50 99.8C77.6 99.8 100 77.5 100 49.9C100 22.3 77.6 0 50 0C22.4 0 0 22.3 0 49.9C0 77.5 22.4 99.8 50 99.8Z" fill="#885BF7"/>
<path d="M89.0999 80.9H78.6999L70.4 24.7L73.0999 19.6L81.5999 77.2H85.0999L75.5999 12.8H72.6999L54.2 48.1L52.2 44.3L70.6999 8.90002H78.5L89.0999 80.9Z" fill="#74FFCD"/>
<path d="M64.3 52L65.2 58L54.6 78L23.8 20.3L15.3 77.2H26.8L30.2 54.4L33.2 60L30.1 81H10.9L21.7 9L54.5 70.6L64.3 52Z" fill="#74FFCD"/>
<path d="M75 80.9H71.5L65.5 40.9L53.8 63L25 8.90002H28.9L53.7 55.5L67.4 29.8L75 80.9Z" fill="#74FFCD"/>
<path d="M52.2 80.9H48.3L28 42.8L23.4 73.3H19.5L25.8 31.4L52.2 80.9Z" fill="#74FFCD"/>
</g>
</g>
<defs>
<clipPath id="clip0_1891_17158">
<rect width="100" height="100" fill="white"/>
</clipPath>
</defs>
</svg>
