<svg width="48" height="48" viewBox="0 0 48 48" fill="none" xmlns="http://www.w3.org/2000/svg">
<g clip-path="url(#clip0_678_3224)">
<path d="M24 48C37.2548 48 48 37.2548 48 24C48 10.7452 37.2548 0 24 0C10.7452 0 0 10.7452 0 24C0 37.2548 10.7452 48 24 48Z" fill="#885BF7"/>
<path d="M38.2599 36.82H34.4399L31.3899 16.8L32.3799 14.97L35.5099 35.47H36.7799L33.2899 12.53H32.2299L25.4099 25.13L24.6699 23.76L31.4899 11.18H34.3499L38.2599 36.82Z" fill="#74FFCD"/>
<path d="M29.0602 26.54L29.3902 28.66L25.5302 35.78L14.4202 15.24L11.3402 35.47H15.5102L16.7502 27.36L17.8302 29.36L16.7002 36.82H9.74023L13.6502 11.2L25.5102 33.11L29.0602 26.54Z" fill="#74FFCD"/>
<path d="M33.17 36.82H31.9L29.72 22.59L25.47 30.45L15.04 11.18H16.45L25.44 27.79L30.4 18.63L33.17 36.82Z" fill="#74FFCD"/>
<path d="M24.6904 36.82H23.2804L15.9704 23.32L14.3304 34.12H12.9404L15.2004 19.28L24.6904 36.82Z" fill="#74FFCD"/>
</g>
<defs>
<clipPath id="clip0_678_3224">
<rect width="48" height="48" fill="white"/>
</clipPath>
</defs>
</svg>
