<svg width="48" height="48" viewBox="0 0 48 48" fill="none" xmlns="http://www.w3.org/2000/svg">
<g clip-path="url(#clip0_1509_14264)">
<path d="M24 48C37.2548 48 48 37.2548 48 24C48 10.7452 37.2548 0 24 0C10.7452 0 0 10.7452 0 24C0 37.2548 10.7452 48 24 48Z" fill="#885BF7"/>
<path d="M41 39H36.5026L32.9117 15.5757L34.0773 13.4345L37.7623 37.4204H39.2575L35.1486 10.5796H33.9007L25.8712 25.3222L25 23.7192L33.0294 9H36.3966L41 39Z" fill="#74FFCD"/>
<path d="M30.5969 26.9625L31 29.445L26.2855 37.7822L12.716 13.7307L8.9542 37.4192H14.0473L15.5618 27.9227L16.8809 30.2646L15.5008 39H7L11.7756 9L26.2611 34.6557L30.5969 26.9625Z" fill="#74FFCD"/>
<path d="M35 39H33.529L31.0039 22.3502L26.0811 31.5468L14 9H15.6332L26.0463 28.4345L31.7915 17.7168L35 39Z" fill="#74FFCD"/>
<path d="M25 39H23.32L14.6102 22.8369L12.6562 35.7674H11L13.6928 18L25 39Z" fill="#74FFCD"/>
</g>
<defs>
<clipPath id="clip0_1509_14264">
<rect width="48" height="48" fill="white"/>
</clipPath>
</defs>
</svg>
