<svg width="245" height="42" viewBox="0 0 245 42" fill="none" xmlns="http://www.w3.org/2000/svg">
<path d="M47.7868 42H41.386L36.2752 9.25901L37.9265 6.26772L43.1738 39.7933H45.3099L39.4527 2.2727H37.6776L26.2566 22.8767L25.0239 20.6476L36.4334 0.065979H41.2277L47.7868 42Z" fill="#43FBBC"/>
<path d="M32.3744 25.183L32.9167 28.6588L26.461 40.2901L7.84795 6.70981L2.67979 39.7933H9.66765L11.749 26.5292L13.5585 29.7957L11.6584 42H0L6.54762 0.110809L26.4151 35.9302L32.3744 25.183Z" fill="#43FBBC"/>
<path d="M39.2613 42H37.1239L33.4819 18.7273L26.3588 31.5828L8.88782 0.065979H11.2511L26.3013 27.2241L34.6138 12.249L39.2613 42Z" fill="#43FBBC"/>
<path d="M25.0469 42H22.6951L10.4484 19.919L7.68952 37.5865H5.35938L9.14809 13.32L25.0469 42Z" fill="#43FBBC"/>
<path d="M86.6514 30.8991V41.934H59.5128V0H61.774V39.7273H84.3902V33.1059H67.4284V27.6538H69.6896V30.8991H86.6514Z" fill="#43FBBC"/>
<path d="M86.6514 0V11.0349H71.9521V8.82815H84.3902V2.20673H65.6776V19.2578H79.3573V21.4658H63.4164V0H86.6514Z" fill="#43FBBC"/>
<path d="M65.8051 25.3811V35.3126H82.1288V37.5206H63.5438V23.1744H80.9982V17.6563H67.4282V4.4147H82.1288V6.62143H69.6895V15.4496H83.2594V25.3811H65.8051Z" fill="#43FBBC"/>
<path d="M196.338 0.065979V42H185.03V0.065979H191.815V37.5865H189.553V2.2727H187.292V39.7933H194.076V0.065979H196.338Z" fill="#43FBBC"/>
<path d="M164.677 35.3786V37.5865H153.368V0.065979H155.629V35.3786H164.677Z" fill="#43FBBC"/>
<path d="M169.199 30.9651V42H144.322V0.065979H151.107V37.5865H148.845V2.2727H146.583V39.7933H166.938V33.1718H157.892V30.9651H169.199Z" fill="#43FBBC"/>
<path d="M133.41 42H120.756L112.038 26.5504H110.398V42H99.0906V0.065979H101.352V39.7933H108.137V24.3437H113.384L122.102 39.7933H129.576L122.328 26.9589C122.407 26.9153 122.486 26.8817 122.554 26.8381C122.735 26.7497 122.905 26.65 123.085 26.5517H124.69L133.41 42Z" fill="#43FBBC"/>
<path d="M130.753 13.3088C130.753 14.0598 130.685 14.7982 130.56 15.5155C130.435 16.2764 130.244 17.0162 129.972 17.7223C129.7 18.4944 129.362 19.2341 128.943 19.929C128.48 20.7235 127.925 21.4632 127.304 22.1357C126.534 22.9738 125.652 23.7136 124.692 24.3425C124.387 24.5405 124.07 24.7285 123.752 24.8941C123.096 25.2578 122.407 25.5566 121.683 25.7995C121.027 26.0311 120.348 26.208 119.647 26.3288L126.002 37.5853H123.414L115.94 24.3425L115.906 24.2652C116.324 24.32 116.754 24.3425 117.183 24.3425C117.625 24.3425 118.053 24.32 118.483 24.2652C120.519 24.0448 122.396 23.2827 123.957 22.1357C124.815 21.518 125.585 20.7671 126.218 19.929C126.75 19.2553 127.19 18.5168 127.541 17.7223C127.858 17.0274 128.106 16.2877 128.265 15.5155C128.411 14.8094 128.49 14.0697 128.49 13.3088C128.49 12.5479 128.411 11.8082 128.265 11.1021C128.106 10.33 127.858 9.59027 127.541 8.89537C127.19 8.10085 126.75 7.36112 126.218 6.68865C125.585 5.85054 124.815 5.0996 123.957 4.48192C122.068 3.09089 119.728 2.2752 117.183 2.2752H105.876V37.5878H103.614V0.065979H117.184C119.966 0.065979 122.544 0.882916 124.693 2.2727C125.654 2.9016 126.536 3.64132 127.305 4.47943C127.926 5.15315 128.482 5.89163 128.945 6.68616C129.363 7.38105 129.703 8.12078 129.973 8.89288C130.245 9.59898 130.437 10.3387 130.562 11.0996C130.684 11.8182 130.753 12.5579 130.753 13.3088Z" fill="#43FBBC"/>
<path d="M126.229 13.3088C126.229 14.0697 126.127 14.8095 125.946 15.5156C125.732 16.2989 125.425 17.0386 125.007 17.7223C124.52 18.5604 123.899 19.3001 123.164 19.929C121.592 21.2752 119.535 22.1146 117.284 22.1357H108.135V19.929H117.182C119.183 19.929 120.992 19.0797 122.225 17.7223C122.825 17.0934 123.288 16.3425 123.57 15.5156C123.83 14.8207 123.965 14.0809 123.965 13.3088C123.965 12.5367 123.83 11.797 123.57 11.1021C123.287 10.274 122.823 9.52427 122.225 8.89538C120.992 7.53797 119.183 6.68865 117.182 6.68865H110.398V8.89538H117.183C118.856 8.89538 120.316 9.77832 121.095 11.1021C121.48 11.7534 121.705 12.5031 121.705 13.3088C121.705 14.1146 121.48 14.8642 121.095 15.5156C120.316 16.8393 118.856 17.7223 117.183 17.7223H108.137V13.3076H110.398V15.5143H117.183C118.427 15.5143 119.444 14.5205 119.444 13.3076C119.444 12.0934 118.426 11.1009 117.183 11.1009H108.137V4.48068H117.183C119.479 4.48068 121.57 5.31879 123.165 6.68741C123.9 7.3163 124.522 8.05603 125.008 8.89413C125.427 9.57782 125.731 10.3175 125.947 11.1009C126.127 11.8082 126.229 12.5467 126.229 13.3088Z" fill="#43FBBC"/>
<path d="M212.101 7.55912V42H209.908V2.43832L240.575 32.3549V35.3574L212.101 7.55912Z" fill="#43FBBC"/>
<path d="M240.575 29.3649L210.552 0.065979H213.616L238.393 24.2329V4.51305H240.575V29.3649Z" fill="#43FBBC"/>
<path d="M244.962 0.065979V42H241.559L216.511 17.8555H216.477V39.7933H218.671V22.9639L220.866 25.1058V42H214.295V12.7011L242.701 39.7933L242.768 2.28391H236.198V19.1021L234.004 16.9614V0.065979H244.962Z" fill="#43FBBC"/>
</svg>
