<svg width="100" height="100" viewBox="0 0 100 100" fill="none" xmlns="http://www.w3.org/2000/svg">
<g clip-path="url(#clip0_1509_14254)">
<mask id="mask0_1509_14254" style="mask-type:luminance" maskUnits="userSpaceOnUse" x="0" y="0" width="100" height="100">
<path d="M100 0H0V100H100V0Z" fill="white"/>
</mask>
<g mask="url(#mask0_1509_14254)">
<path d="M50 99.75C77.6142 99.75 100 77.4224 100 49.88C100 22.3376 77.6142 0.0100098 50 0.0100098C22.3858 0.0100098 0 22.3376 0 49.88C0 77.4224 22.3858 99.75 50 99.75Z" fill="#885BF7"/>
<path d="M86 82H76.4401L68.8018 32.0341L71.2759 27.4721L79.1063 78.6385H82.301L73.5578 21.3735H70.9036L53.8375 52.8152L52 49.4177L69.042 18H76.1999L86 82Z" fill="#74FFCD"/>
<path d="M63.1697 56.3039L64 61.6162L54.1954 79.3919L25.9292 28.0838L18.0781 78.6347H28.6886L31.851 58.3591L34.5983 63.3589L31.7167 82H14L23.9512 18L54.1221 72.7335L63.1697 56.3039Z" fill="#74FFCD"/>
<path d="M73 82H69.7613L64.2456 46.4885L53.4579 66.105L27 18H30.5797L53.3727 59.4541L65.9624 36.5961L73 82Z" fill="#74FFCD"/>
<path d="M52 82H48.4108L29.7542 48.1251L25.5525 75.2298H22L27.7697 38L52 82Z" fill="#74FFCD"/>
</g>
</g>
<defs>
<clipPath id="clip0_1509_14254">
<rect width="100" height="100" fill="white"/>
</clipPath>
</defs>
</svg>
