<svg width="165" height="250" viewBox="0 0 165 250" fill="none" xmlns="http://www.w3.org/2000/svg">
<g clip-path="url(#clip0_12_205)">
<path d="M164.9 102.3H165.3V125.1H164.9V193.2H37.7V0H164.9V79.5H165.3V102.3H164.9Z" fill="#9298A4"/>
<path d="M12.6 11.3999H0V238.7H12.6V11.3999Z" fill="#212028"/>
<path d="M25.5001 0H12.6001V193.2H25.5001V0Z" fill="#484B5A"/>
<path d="M37.7 0H25.5V193.2H37.7V0Z" fill="#2F333F"/>
<path d="M37.7001 238.7H12.6001V250.1H37.7001V238.7Z" fill="#1E1D23"/>
<path d="M164.9 238.7H37.7V250.1H164.9V238.7Z" fill="#474D5D"/>
<path d="M164.9 193.2H37.7V204.6H164.9V193.2Z" fill="#474D5D"/>
<path d="M63.0999 170.4H50.3999V181.8H63.0999V170.4Z" fill="#838B98"/>
<path d="M63.0999 159H50.3999V170.4H63.0999V159Z" fill="#646B7B"/>
<path d="M63.0999 147.6H50.3999V159H63.0999V147.6Z" fill="#646B7B"/>
<path d="M63.0999 136.5H50.3999V147.9H63.0999V136.5Z" fill="#9FA3AE"/>
<path d="M63.0999 79.5H50.3999V90.9H63.0999V79.5Z" fill="#838B98"/>
<path d="M63.0999 68.1001H50.3999V79.5001H63.0999V68.1001Z" fill="#646B7B"/>
<path d="M63.0999 56.7H50.3999V68.0999H63.0999V56.7Z" fill="#9FA3AE"/>
<path d="M63.0999 22.8H50.3999V34.2001H63.0999V22.8Z" fill="#838B98"/>
<path d="M63.5 11.3999H50.8V22.7999H63.5V11.3999Z" fill="#646B7B"/>
<path d="M63.0999 0H50.3999V11.4H63.0999V0Z" fill="#9FA3AE"/>
<path d="M75.8001 181.8H63.1001V193.2H75.8001V181.8Z" fill="#646B7B"/>
<path d="M75.8001 170.4H63.1001V181.8H75.8001V170.4Z" fill="#9FA3AE"/>
<path d="M75.8001 159H63.1001V170.4H75.8001V159Z" fill="#838B98"/>
<path d="M75.8001 147.6H63.1001V159H75.8001V147.6Z" fill="#838B98"/>
<path d="M75.8001 136.5H63.1001V147.9H75.8001V136.5Z" fill="#646B7B"/>
<path d="M75.8001 125.1H63.1001V136.5H75.8001V125.1Z" fill="#9FA3AE"/>
<path d="M75.8001 90.8999H63.1001V102.3H75.8001V90.8999Z" fill="#838B98"/>
<path d="M75.8001 79.5H63.1001V90.9H75.8001V79.5Z" fill="#646B7B"/>
<path d="M75.8001 68.1001H63.1001V79.5001H75.8001V68.1001Z" fill="#9FA3AE"/>
<path d="M139.5 22.8H63.1001V57H139.5V22.8Z" fill="#EAE6E3"/>
<path d="M88.5999 181.8H75.8999V193.2H88.5999V181.8Z" fill="#838B98"/>
<path d="M88.5999 170.4H75.8999V181.8H88.5999V170.4Z" fill="#646B7B"/>
<path d="M88.5999 159H75.8999V170.4H88.5999V159Z" fill="#9FA3AE"/>
<path d="M88.5999 11.3999H75.8999V22.7999H88.5999V11.3999Z" fill="#838B98"/>
<path d="M88.9 0H76.2V11.4H88.9V0Z" fill="#646B7B"/>
<path d="M101.3 181.8H88.6001V193.2H101.3V181.8Z" fill="#646B7B"/>
<path d="M101.3 170.4H88.6001V181.8H101.3V170.4Z" fill="#9FA3AE"/>
<path d="M101.3 125.1H88.6001V136.5H101.3V125.1Z" fill="#838B98"/>
<path d="M101.3 113.7H88.6001V125.1H101.3V113.7Z" fill="#646B7B"/>
<path d="M101.3 102.3H88.6001V113.7H101.3V102.3Z" fill="#646B7B"/>
<path d="M101.3 90.8999H88.6001V102.3H101.3V90.8999Z" fill="#9FA3AE"/>
<path d="M114 181.8H101.3V193.2H114V181.8Z" fill="#646B7B"/>
<path d="M114 170.4H101.3V181.8H114V170.4Z" fill="#9FA3AE"/>
<path d="M114 147.6H101.3V159H114V147.6Z" fill="#838B98"/>
<path d="M114 136.5H101.3V147.9H114V136.5Z" fill="#646B7B"/>
<path d="M114 125.1H101.3V136.5H114V125.1Z" fill="#646B7B"/>
<path d="M114 113.7H101.3V125.1H114V113.7Z" fill="#9FA3AE"/>
<path d="M114 102.3H101.3V113.7H114V102.3Z" fill="#9298A4"/>
<path d="M114 90.8999H101.3V102.3H114V90.8999Z" fill="#838B98"/>
<path d="M114.4 79.5H101.7V90.9H114.4V79.5Z" fill="#646B7B"/>
<path d="M114 68.1001H101.3V79.5001H114V68.1001Z" fill="#9FA3AE"/>
<path d="M126.7 181.8H114V193.2H126.7V181.8Z" fill="#838B98"/>
<path d="M126.7 170.4H114V181.8H126.7V170.4Z" fill="#646B7B"/>
<path d="M126.7 159H114V170.4H126.7V159Z" fill="#9FA3AE"/>
<path d="M126.7 102.3H114V113.7H126.7V102.3Z" fill="#838B98"/>
<path d="M126.7 90.8999H114V102.3H126.7V90.8999Z" fill="#646B7B"/>
<path d="M126.7 79.5H114V90.9H126.7V79.5Z" fill="#9FA3AE"/>
<path d="M127.1 11.3999H114.4V22.7999H127.1V11.3999Z" fill="#646B7B"/>
<path d="M127.1 0H114.4V11.4H127.1V0Z" fill="#646B7B"/>
<path d="M139.5 136.5H126.8V147.9H139.5V136.5Z" fill="#838B98"/>
<path d="M139.5 125.1H126.8V136.5H139.5V125.1Z" fill="#646B7B"/>
<path d="M139.5 113.7H126.8V125.1H139.5V113.7Z" fill="#9FA3AE"/>
<path d="M152.2 181.8H139.5V193.2H152.2V181.8Z" fill="#838B98"/>
<path d="M152.2 170.4H139.5V181.8H152.2V170.4Z" fill="#646B7B"/>
<path d="M152.2 159H139.5V170.4H152.2V159Z" fill="#838B98"/>
<path d="M152.2 147.6H139.5V159H152.2V147.6Z" fill="#646B7B"/>
<path d="M152.2 136.5H139.5V147.9H152.2V136.5Z" fill="#9FA3AE"/>
<path d="M152.2 125.1H139.5V136.5H152.2V125.1Z" fill="#838B98"/>
<path d="M152.2 113.7H139.5V125.1H152.2V113.7Z" fill="#646B7B"/>
<path d="M152.2 102.3H139.5V113.7H152.2V102.3Z" fill="#9FA3AE"/>
<path d="M152.2 90.8999H139.5V102.3H152.2V90.8999Z" fill="#838B98"/>
<path d="M152.2 79.5H139.5V90.9H152.2V79.5Z" fill="#646B7B"/>
<path d="M152.2 68.1001H139.5V79.5001H152.2V68.1001Z" fill="#9FA3AE"/>
<path d="M152.2 56.7H139.5V68.0999H152.2V56.7Z" fill="#838B98"/>
<path d="M152.5 45.6001H139.8V57.0001H152.5V45.6001Z" fill="#646B7B"/>
<path d="M152.2 34.2H139.5V45.5999H152.2V34.2Z" fill="#9FA3AE"/>
<path d="M152.2 22.8H139.5V34.2001H152.2V22.8Z" fill="#838B98"/>
<path d="M152.5 11.3999H139.8V22.7999H152.5V11.3999Z" fill="#646B7B"/>
<path d="M152.2 0H139.5V11.4H152.2V0Z" fill="#9FA3AE"/>
<path d="M164.9 181.8H152.2V193.2H164.9V181.8Z" fill="#646B7B"/>
<path d="M164.9 170.4H152.2V181.8H164.9V170.4Z" fill="#9FA3AE"/>
<path d="M164.9 159H152.2V170.4H164.9V159Z" fill="#9298A4"/>
<path d="M164.9 147.6H152.2V159H164.9V147.6Z" fill="#838B98"/>
<path d="M164.9 136.5H152.2V147.9H164.9V136.5Z" fill="#646B7B"/>
<path d="M164.9 125.1H152.2V136.5H164.9V125.1Z" fill="#9FA3AE"/>
<path d="M139.5 181.8H126.8V193.2H139.5V181.8Z" fill="#9298A4"/>
<path d="M139.5 102.3H126.8V113.7H139.5V102.3Z" fill="#9298A4"/>
<path d="M164.9 68.1001H152.2V79.5001H164.9V68.1001Z" fill="#838B98"/>
<path d="M165.3 56.7H152.6V68.0999H165.3V56.7Z" fill="#646B7B"/>
<path d="M164.9 45.6001H152.2V57.0001H164.9V45.6001Z" fill="#9FA3AE"/>
<path d="M164.9 34.2H152.2V45.5999H164.9V34.2Z" fill="#838B98"/>
<path d="M165.3 22.8H152.6V34.2001H165.3V22.8Z" fill="#646B7B"/>
<path d="M164.9 11.3999H152.2V22.7999H164.9V11.3999Z" fill="#838B98"/>
<path d="M165.3 0H152.6V11.4H165.3V0Z" fill="#646B7B"/>
<path d="M37.7001 227.3H12.6001V238.7H37.7001V227.3Z" fill="#333242"/>
<path d="M164.9 215.9H25.5V227.3H164.9V215.9Z" fill="#EAE6E3"/>
<path d="M164.9 204.5V215.9H25.5001V227.3H12.6001V204.5H164.9Z" fill="#C0C7D1"/>
<path d="M37.7001 193.2H12.6001V204.6H37.7001V193.2Z" fill="#212028"/>
<path d="M164.9 227.3H37.7V238.7H164.9V227.3Z" fill="#656B7B"/>
</g>
<defs>
<clipPath id="clip0_12_205">
<rect width="165" height="250" fill="white"/>
</clipPath>
</defs>
</svg>
